HIERARCHY
ROOT Hips
{
	OFFSET 0.000000 0.000000 0.000000 
	CHANNELS 6 Xposition Yposition Zposition Yrotation Zrotation Xrotation 
	JOINT Lumbar
	{
		OFFSET 0.000000 0.000000 0.000000 
		CHANNELS 3 Zrotation Xrotation Yrotation
		JOINT Neck
		{
			OFFSET 0.000000 0.445665 0.000000 
			CHANNELS 3 Zrotation Xrotation Yrotation
			End Site
			{
				OFFSET 0.000000 0.227535 0.000000 
			}
		}
		JOINT RightShoulder
		{
			OFFSET 0.019635 0.377685 0.194865 
			CHANNELS 3 Zrotation Xrotation Yrotation
			JOINT RightElbow
			{
				OFFSET 0.000000 -0.243375 0.000000 
				CHANNELS 2 Zrotation Yrotation
				JOINT RightWrist
				{
					OFFSET 0.000000 -0.264825 0.000000 
					CHANNELS 2 Zrotation Xrotation
					End Site
					{
						OFFSET 0.006600 -0.176220 0.000990 
					}
				}
			}
		}
		JOINT LeftShoulder
		{
			OFFSET 0.019635 0.377685 -0.194865 
			CHANNELS 3 Zrotation Xrotation Yrotation
			JOINT LeftElbow
			{
				OFFSET 0.000000 -0.243375 0.000000 
				CHANNELS 2 Zrotation Yrotation
				JOINT LeftWrist
				{
					OFFSET 0.000000 -0.264825 0.000000 
					CHANNELS 2 Zrotation Xrotation
					End Site
					{
						OFFSET 0.006600 -0.176220 -0.000990 
					}
				}
			}
		}
	}
	JOINT RightHip
	{
		OFFSET 0.052140 -0.069960 0.075570 
		CHANNELS 3 Zrotation Xrotation Yrotation
		JOINT RightKnee
		{
			OFFSET 0.000000 -0.402270 0.000000 
			CHANNELS 1 Zrotation
			JOINT RightAnkle
			{
				OFFSET 0.000000 -0.404085 0.000000 
				CHANNELS 3 Zrotation Xrotation Yrotation
				End Site
				{
					OFFSET 0.204105 -0.089430 0.008415 
				}
			}
		}
	}
	JOINT LeftHip
	{
		OFFSET 0.052140 -0.069960 -0.075570 
		CHANNELS 3 Zrotation Xrotation Yrotation
		JOINT LeftKnee
		{
			OFFSET 0.000000 -0.402270 0.000000 
			CHANNELS 1 Zrotation
			JOINT LeftAnkle
			{
				OFFSET 0.000000 -0.404085 0.000000 
				CHANNELS 3 Zrotation Xrotation Yrotation
				End Site
				{
					OFFSET 0.204105 -0.089430 -0.008415 
				}
			}
		}
	}
}
MOTION
Frames: 27
Frame Time: 0.02
-0.00203 0.00156 -0.0066 140.5775 -31.24581 0.25238 42.17794 2.74201 -3.25166 -20.4258 -5.23063 -0.52485 -17.63166 -13.33592 -8.89662 35.64718 91.357 4.52318 0.9559 -29.2298 17.42277 -6.16855 47.3567 -103.04248 13.94333 -1.02381 32.77419 0.05918 -13.20539 -20.84353 -7.25873 -4.10467 -2.8318 37.71943 10.46509 6.3747 -26.57847 -9.64983 4.41887 3.15523
-0.00629 0.00148 -0.00621 140.26143 -31.30659 0.11878 42.41747 2.72923 -3.46132 -20.19782 -5.03735 -0.52539 -17.57521 -13.19658 -8.59095 35.81876 91.29234 4.55126 0.95033 -29.06426 17.51395 -6.07132 47.60561 -102.99947 13.89505 -1.02684 32.66321 0.04767 -12.70948 -20.75981 -7.30013 -4.14018 -2.85416 37.50363 10.19648 5.78579 -26.51677 -9.68586 4.50622 3.20535
-0.01054 0.0014 -0.00582 139.94596 -31.36728 -0.01453 42.65645 2.71641 -3.67052 -19.97036 -4.84428 -0.52594 -17.51899 -13.05744 -8.28628 35.98949 91.22836 4.57938 0.94481 -28.89944 17.60443 -5.97348 47.85411 -102.96369 13.84896 -1.03095 32.55251 0.03598 -12.21502 -20.67631 -7.34138 -4.17553 -2.87641 37.28833 9.92845 5.19845 -26.45527 -9.72176 4.59333 3.25533
-0.01479 0.00132 -0.00543 139.6308 -31.42788 -0.14774 42.89528 2.70366 -3.87956 -19.74306 -4.65154 -0.52648 -17.46272 -12.9185 -7.98151 36.16048 91.16373 4.60732 0.93923 -28.73445 17.69524 -5.87634 48.10233 -102.92247 13.80131 -1.03423 32.44184 0.02448 -11.72062 -20.59285 -7.38265 -4.21091 -2.89869 37.07316 9.66063 4.6113 -26.39376 -9.75767 4.68041 3.3053
-0.01905 0.00125 -0.00504 139.31516 -31.48857 -0.2812 43.13458 2.69098 -4.08901 -19.5153 -4.45872 -0.52702 -17.40622 -12.77942 -7.67589 36.33245 91.09895 4.63535 0.93369 -28.56865 17.78695 -5.78029 48.35075 -102.86993 13.7503 -1.03579 32.33097 0.0132 -11.22482 -20.50918 -7.42406 -4.24646 -2.92107 36.85758 9.39233 4.02272 -26.33204 -9.7937 4.76771 3.35538
-0.0233 0.00117 -0.00464 139.00008 -31.54928 -0.41419 43.37287 2.67789 -4.29765 -19.28846 -4.26512 -0.52757 -17.35063 -12.64015 -7.37331 36.50057 91.03702 4.66378 0.92827 -28.40589 17.87488 -5.67879 48.59937 -102.86851 13.71431 -1.04512 32.22065 0.00065 -10.73323 -20.42604 -7.465 -4.28139 -2.94307 36.64291 9.12485 3.43803 -26.27104 -9.82934 4.85444 3.40517
-0.02756 0.00109 -0.00425 138.68425 -31.60979 -0.54794 43.61293 2.66562 -4.50766 -19.06006 -4.07333 -0.52811 -17.29317 -12.50148 -7.06453 36.67621 90.96762 4.69089 0.92232 -28.23722 17.97017 -5.58795 48.84747 -102.76814 13.64926 -1.03942 32.10924 -0.00929 -10.23367 -20.34194 -7.50683 -4.31754 -2.96581 36.42654 8.85605 2.84606 -26.20864 -9.86573 4.94221 3.4555
-0.03181 0.00101 -0.00386 138.36905 -31.67064 -0.68106 43.85138 2.65262 -4.71646 -18.83305 -3.87982 -0.52865 -17.23761 -12.36215 -6.76224 36.84501 90.9084 4.7201 0.91741 -28.07394 18.05895 -5.48804 49.09577 -102.75186 13.60895 -1.04648 31.99902 -0.02169 -9.74151 -20.25872 -7.54786 -4.35255 -2.98787 36.21192 8.58843 2.26097 -26.14754 -9.90142 5.02903 3.50533
-0.03604 0.00093 -0.00346 138.05466 -31.73134 -0.81324 44.08789 2.6386 -4.92371 -18.6078 -3.68429 -0.5292 -17.18369 -12.22231 -6.46471 37.00507 90.84861 4.74841 0.91162 -27.91747 18.13862 -5.37385 49.3456 -102.86806 13.60741 -1.07368 31.88945 -0.03692 -9.25801 -20.17655 -7.58786 -4.38622 -3.0091 35.99861 8.32225 1.68336 -26.08799 -9.93628 5.11471 3.55459
-0.04035 0.00086 -0.0031 137.73573 -31.79122 -0.95032 44.33567 2.63005 -5.13966 -18.37257 -3.50061 -0.52973 -17.1183 -12.08631 -6.13024 37.21426 90.75299 4.77146 0.90441 -27.72248 18.26723 -5.33221 49.5905 -102.31143 13.40845 -0.9987 31.77373 -0.03533 -8.72351 -20.08826 -7.63361 -4.42774 -3.03511 35.77527 8.04773 1.0599 -26.0194 -9.976 5.207 3.60723
-0.04451 0.00078 -0.00264 137.42634 -31.85388 -1.07733 44.55958 2.61022 -5.33736 -18.15836 -3.29182 -0.53031 -17.07837 -11.94168 -5.8798 37.32058 90.75791 4.81228 0.90431 -27.60834 18.29487 -5.14374 49.84328 -103.11645 13.60943 -1.13041 31.67253 -0.06955 -8.29739 -20.01294 -7.66734 -4.45264 -3.05102 35.57473 7.79089 0.53506 -25.96997 -10.00542 5.2853 3.65266
-0.04825 0.00069 -0.00198 137.14301 -31.9154 -1.17434 44.7176 2.55711 -5.48379 -18.00254 -3.01456 -0.53104 -17.09874 -11.77864 -5.80891 37.1356 90.8214 4.84341 0.88768 -27.7216 18.02354 -4.49575 50.13794 -108.18309 15.05835 -1.91007 31.59877 -0.20041 -8.16435 -19.97291 -7.66693 -4.43182 -3.03904 35.42335 7.58196 0.26746 -25.97275 -10.00681 5.32521 3.67867
-0.05184 0.00061 -0.0012 136.869 -31.98114 -1.26171 44.8513 2.49311 -5.61214 -17.86772 -2.71223 -0.53184 -17.14653 -11.60685 -5.82948 36.84923 91.01538 4.90033 0.88313 -27.91483 17.6547 -3.71012 50.43622 -114.52708 16.88302 -2.88347 31.54178 -0.36746 -8.14055 -19.94588 -7.65471 -4.39434 -3.01696 35.29713 7.39083 0.10118 -25.99479 -9.99784 5.35109 3.69737
-0.05551 0.00053 -0.00043 136.59108 -32.05093 -1.35498 44.99697 2.43562 -5.74951 -17.72274 -2.42078 -0.5326 -17.18791 -11.43454 -5.84456 36.61484 91.3053 4.98732 0.89874 -28.06812 17.34501 -3.02534 50.72031 -119.93425 18.43492 -3.71402 31.48539 -0.51908 -8.07004 -19.91318 -7.64863 -4.3645 -2.99958 35.16841 7.19198 -0.10247 -26.00829 -9.99344 5.3834 3.71916
-0.05914 0.00043 0.00017 136.31282 -32.09637 -1.44163 45.1405 2.3715 -5.88333 -17.58022 -2.1305 -0.53335 -17.20344 -11.27762 -5.71729 36.35436 90.98441 4.90981 0.81314 -28.23758 16.97322 -2.18144 51.0596 -126.81801 20.40989 -4.77158 31.39484 -0.66673 -7.98891 -19.87981 -7.63915 -4.33426 -2.98163 35.00292 6.99179 -0.34174 -26.02106 -9.98953 5.41542 3.74187
-0.06282 0.00037 0.00116 136.03621 -32.19251 -1.54001 45.28047 2.31864 -6.02041 -17.4378 -1.83301 -0.53419 -17.27973 -11.09105 -5.89596 36.12539 91.91113 5.16615 0.93238 -28.39131 16.70674 -1.63275 51.28197 -130.96699 21.60317 -5.40818 31.37877 -0.8309 -7.95384 -19.85056 -7.6341 -4.30103 -2.96257 34.91886 6.7984 -0.48379 -26.03974 -9.98225 5.44473 3.76096
-0.06666 0.00037 0.00317 135.77229 -32.43606 -1.67151 45.43549 2.29909 -6.16997 -17.28852 -1.51194 -0.53484 -17.51307 -10.78551 -7.00367 35.99866 96.73738 6.46856 1.69188 -28.49016 16.76369 -1.96477 51.20464 -126.91661 20.45351 -4.7825 31.56978 -1.03453 -8.03631 -19.8329 -7.64283 -4.26242 -2.94226 35.06288 6.62148 -0.37231 -26.07148 -9.96713 5.46998 3.77146
-0.07053 0.0004 0.00558 135.50756 -32.72877 -1.81556 45.58387 2.29125 -6.32376 -17.13907 -1.18642 -0.53564 -17.80709 -10.45722 -8.39757 35.90914 102.73101 8.0836 2.6438 -28.56885 16.92861 -2.59282 51.0051 -120.13017 18.52067 -3.73596 31.83424 -1.25298 -8.15862 -19.81854 -7.65668 -4.22153 -2.92127 35.28615 6.45073 -0.16725 -26.10818 -9.94908 5.49293 3.7786
-0.07438 0.00043 0.00784 135.23659 -32.99363 -1.95481 45.72334 2.27842 -6.47608 -16.99088 -0.86929 -0.53665 -18.07627 -10.16576 -9.58875 35.80867 107.86204 9.46748 3.45529 -28.65143 17.0381 -3.06438 50.84562 -114.81809 17.00779 -2.91671 32.06132 -1.46288 -8.25085 -19.80018 -7.66908 -4.18255 -2.90109 35.46702 6.27534 -0.0129 -26.14167 -9.9332 5.517 3.78757
-0.07829 0.00043 0.01 134.99462 -33.2825 -2.0895 45.91385 2.26414 -6.62529 -16.83805 -0.52404 -0.53652 -18.33591 -9.76434 -11.08418 35.67877 114.3701 11.2205 4.48616 -28.75916 17.17015 -3.62348 50.75128 -108.58334 15.24046 -1.9531 32.30542 -1.68184 -8.39548 -19.79192 -7.67741 -4.13957 -2.87863 35.67595 6.10688 0.17501 -26.18 -9.91384 5.54048 3.79516
-0.08207 0.00048 0.01246 134.69097 -33.53222 -2.23729 45.99486 2.25538 -6.78291 -16.69505 -0.23704 -0.53879 -18.62812 -9.5839 -12.0198 35.62122 118.32254 12.28844 5.1116 -28.80857 17.28323 -4.07277 50.49263 -103.59433 13.80872 -1.18646 32.53186 -1.8848 -8.44151 -19.76439 -7.69553 -4.10426 -2.86068 35.84463 5.92703 0.31958 -26.20902 -9.90065 5.56457 3.80472
-0.08557 0.00063 0.01562 134.22511 -33.6688 -2.41412 45.7923 2.26266 -6.9569 -16.57518 -0.10882 -0.5477 -19.00716 -10.04247 -11.27864 35.7474 114.6203 11.30455 4.52011 -28.70177 17.30874 -4.14331 49.80601 -102.79154 13.52342 -1.07659 32.68859 -2.04131 -8.18393 -19.67487 -7.73997 -4.09368 -2.85713 35.88608 5.69855 0.27159 -26.21238 -9.90982 5.59312 3.82232
-0.08892 0.00081 0.01906 133.69549 -33.76335 -2.60456 45.47716 2.27437 -7.14029 -16.4659 -0.04018 -0.55901 -19.41467 -10.71944 -9.97575 35.94689 108.36868 9.63722 3.52408 -28.53628 17.31364 -4.09433 48.95882 -103.31618 13.59572 -1.17667 32.82674 -2.18083 -7.82966 -19.56866 -7.79404 -4.09039 -2.85786 35.88408 5.46113 0.18476 -26.20597 -9.9246 5.62204 3.84176
-0.09229 0.00099 0.0224 133.19002 -33.872 -2.79144 45.20183 2.28186 -7.32342 -16.35431 0.0537 -0.56919 -19.80119 -11.28178 -8.96879 36.11792 103.48166 8.33583 2.74522 -28.39768 17.33418 -4.10286 48.18807 -103.17608 13.48394 -1.1731 32.9737 -2.32692 -7.53273 -19.47347 -7.84343 -4.08194 -2.85556 35.89901 5.23811 0.14903 -26.20293 -9.93371 5.64933 3.85922
-0.09588 0.00115 0.02568 132.70563 -34.00181 -2.96747 44.97225 2.29952 -7.49016 -16.23203 0.15597 -0.57955 -20.22337 -11.91014 -7.79778 36.26979 97.74429 6.80632 1.8292 -28.25872 17.33169 -4.10836 47.39919 -103.20049 13.43613 -1.1896 33.11655 -2.47811 -7.17895 -19.35813 -7.89432 -4.08135 -2.85788 35.92643 4.97208 -0.02123 -26.20411 -9.95544 5.68252 3.88127
-0.09896 0.00133 0.02913 132.16133 -34.07902 -3.1694 44.62318 2.2963 -7.69271 -16.13466 0.22599 -0.59008 -20.57782 -12.45079 -6.83445 36.47837 93.18424 5.59229 1.10431 -28.10531 17.37118 -4.08765 46.61058 -103.23348 13.35013 -1.2198 33.26905 -2.61484 -6.92225 -19.28799 -7.94427 -4.06594 -2.8515 35.9192 4.79294 0.07407 -26.19474 -9.95284 5.70376 3.89441
-0.10073 0.00155 0.03303 131.47495 -34.00253 -3.4375 43.95092 2.23947 -7.9964 -16.10226 0.22609 -0.60054 -20.73363 -12.71708 -6.551 36.82605 92.24326 5.35241 0.96776 -27.93858 17.52842 -4.02498 45.8698 -102.97361 13.07503 -1.23693 33.39613 -2.71151 -6.93708 -19.28404 -7.9894 -4.01005 -2.82118 35.80206 4.86048 0.94807 -26.15288 -9.8766 5.69006 3.88095
